<svg id="Layer_1" enable-background="new 0 0 110 110" viewBox="0 0 110 110" xmlns="http://www.w3.org/2000/svg"><g id="_x35_1"><g><g><g><g enable-background="new"><g><g><path d="m97.2349472 72.5159531-.0164566 5.4269028c0 .4192429-.2713394.8302612-.8138123 1.1508713l-40.3651161 23.431572c-1.1016045.6329346-2.901825.6329346-4.0115585 0l-38.4244557-22.1938936c-.5589314-.3205566-.8384972-.7480316-.8384972-1.1672821l.0082293-5.4269028c0 .4274826.2795649.8467255.8384962 1.17556l38.4326859 22.1856155c1.1015015.6411667 2.901722.6411667 4.0033264 0l40.3651219-23.4315642c.5424728-.3123856.8138122-.7316284.8220367-1.1508789z" fill="#64af5b"/></g></g><g><g><path d="m53.7442322 97.5625c-.6213455-.0384293-1.2258339-.1882019-1.6997681-.4641037l-38.4326877-22.1856155c-.5589314-.3288345-.8384962-.7480774-.8384962-1.17556l-.0082293 5.4269028c0 .4192505.2795658.8467255.8384972 1.1672821l38.4244537 22.1938934c.4799614.2737961 1.0902672.4217529 1.7162285.4586868v-5.4214859z" fill="#5a965a"/></g></g><g><g><path d="m96.4088058 73.6644058-40.3601036 23.4300537c-1.0998535.6400146-2.8999023.6400146-4.0100098 0l-38.4299325-22.1899414c-.4001465-.2301025-.6501465-.5100098-.7600098-.8000488-.1499023-.3699951-.0700684-.7600098.2299805-1.0999756.1298828-.1500244.3000488-.2900391.5200195-.4199219l40.3598633-23.4300575c1.1000977-.6400146 2.8901367-.6400146 4 .0098877l38.4401817 22.1800575c1.0998545.6400147 1.1098643 1.6800537.0100107 2.3199463z" fill="#9bcb75"/></g></g></g></g><g><g><g enable-background="new"><g><g><path d="m70.5882874 76.4958572-23.0235177-13.3798065-.048767-26.2516899 23.0235176 13.3798103z" fill="#adb3bc"/></g></g><g><g><path d="m84.303566 42.2958908.0487671 26.2532883-13.7640457 7.9466781-.0487671-26.2516861z" fill="#ebeef4"/></g></g><g><g><path d="m70.5395203 50.2441711-23.0235176-13.3798103 13.7640419-7.9482784 23.0235214 13.3798084z" fill="#cacdd2"/></g></g></g></g><g><g><g><path d="m42.3945236 66.592514 21.7108231-12.6286735-.1250725 18.6869392-21.5857506 12.5441742z" fill="#71d8f8"/></g><g><g enable-background="new"><g><g><path d="m57.2066612 76.9802017-.3544349-.2059707 7.1280479-4.1234513.354435.2059708z" fill="#3b5a76"/></g></g><g><g><path d="m64.3347092 72.8567505-.354435-.2059708-.0240822-19.008976.3544312.2059746z" fill="#2a3c4a"/></g></g><g><g><path d="m56.9394379 77.4430542-.354435-.2059708-.0258293-19.625103.3544311.2059708z" fill="#2a3c4a"/></g></g><g><g><path d="m49.810524 81.2584381-.3544312-.2059708 7.1280365-4.1234512.354435.2059784z" fill="#3b5a76"/></g></g><g><g><path d="m49.810524 81.2584381 7.1280403-4.1234436.0008736.3080597c-.1001358.0579224-7.8927269 4.5654831-7.3961487 4.278244l-.0258331-19.6251068 7.3961487-4.2782402.0008736.3080673-7.1280365 4.1234436z" fill="#375064"/></g></g><g><g><path d="m56.9136047 57.8179512 7.6642456-4.4330215.0258255 19.625103c-.1014709.0586929-8.1776657 4.7299881-7.664238 4.4330215zm7.4211045 15.0387993-.024086-19.0089722-7.1280441 4.1234512.0240822 19.0089722z" fill="#375064"/></g></g><g><g><path d="m56.9136047 57.8179512-.3544311-.2059708 7.6642456-4.4330253.3544311.2059746z" fill="#3b5a76"/></g></g><g><g><path d="m49.5432892 81.7212982-.354435-.2059784-.0258293-19.6250992.3544312.2059708z" fill="#2a3c4a"/></g></g><g><g><path d="m49.5174561 62.0961914-.3544312-.2059708 7.3961487-4.2782402.3544311.2059708z" fill="#3b5a76"/></g></g></g><g enable-background="new"><g><g><path d="m42.4143677 85.5366821-.3544312-.2059707 7.1280442-4.1234513.3544349.2059708z" fill="#3b5a76"/></g></g><g><g><path d="m42.1471519 85.999527-.3544311-.2059708-.0258293-19.6251068.3544311.2059784z" fill="#2a3c4a"/></g></g><g><g><path d="m42.1213226 66.3744278-.3544311-.2059784 7.3961334-4.2782288.3544312.2059708z" fill="#3b5a76"/></g></g><g><g><path d="m42.4143677 85.5366821 7.1280479-4.1234512.0008736.3080673c-.1001358.0579224-7.8927155 4.5654755-7.3961372 4.2782288l-.0258293-19.6250992 7.3961334-4.2782364.0008736.3080673-7.1280442 4.1234513z" fill="#375064"/></g></g></g></g></g><g><g><g><path d="m41.8104095 66.6489182-21.7108287-12.628666.1250763 18.6869393 21.5857524 12.5441742z" fill="#29c3ed"/></g><g><g enable-background="new"><g><g><path d="m26.99827 77.0366135.3544331-.2059708-7.128046-4.1234512-.3544331.2059707z" fill="#3b5a76"/></g></g><g><g><path d="m19.870224 72.9131622.3544331-.2059707.0240821-19.008976-.3544311.2059707z" fill="#2a3c4a"/></g></g><g><g><path d="m27.2654953 77.4994659.3544331-.2059707.0258293-19.6251068-.3544331.2059745z" fill="#2a3c4a"/></g></g><g><g><path d="m34.3944054 81.3148499.3544311-.2059784-7.1280365-4.1234436-.3544311.2059707z" fill="#3b5a76"/></g></g><g><g><path d="m34.3944054 81.3148499-7.1280365-4.1234513-.0008736.3080673 7.1280365 4.1234436.2681122.1547928.0258293-19.6250992-7.3961487-4.2782402-.0008736.3080636 7.1280365 4.1234474z" fill="#375064"/></g></g><g><g><path d="m27.2654953 77.4994659-.2680969-.1547852-7.3961449-4.2782364.0258293-19.6251068 7.6642418 4.4330254zm-7.3952713-4.5863037 7.128046 4.1234512.0240841-19.0089722-7.128046-4.123455z" fill="#375064"/></g></g><g><g><path d="m27.2913246 57.8743629.3544331-.2059745-7.6642418-4.4330254-.3544331.2059746z" fill="#3b5a76"/></g></g><g><g><path d="m34.661644 81.7777023.3544311-.2059707.0258293-19.625103-.3544311.2059745z" fill="#2a3c4a"/></g></g><g><g><path d="m34.6874733 62.1526031.3544311-.2059745-7.3961467-4.2782402-.3544331.2059745z" fill="#3b5a76"/></g></g></g><g enable-background="new"><g><g><path d="m41.7905655 85.5930939.3544311-.2059708-7.1280479-4.1234589-.3544312.2059784z" fill="#3b5a76"/></g></g><g><g><path d="m42.0577774 86.0559387.354435-.2059707.0258293-19.6251069-.354435.2059708z" fill="#375064"/></g></g><g><g><path d="m42.0836067 66.4308319.354435-.2059708-7.3961373-4.2782325-.3544311.2059745z" fill="#3b5a76"/></g></g><g><g><path d="m41.7905655 85.5930939-7.1280479-4.1234512-.0008736.3080597c.1001358.0579224 7.8927116 4.5654755 7.3961334 4.2782364l.0258293-19.6251068-7.3961334-4.2782288-.0008736.3080635 7.1280479 4.123455z" fill="#375064"/></g></g></g></g></g></g></g><g><g><g><g><path d="m37.2334633 69.4474258-23.0235176-13.3798065 46.9952202-27.1336059 23.1254921 13.3209266z" fill="#dbdfe6"/></g></g><g><g><path d="m37.2956009 71.8384781-23.0235186-13.3798065-.0621366-2.3910523 23.0235176 13.3798065z" fill="#adb3bc"/></g></g><g><g><path d="m84.330658 42.25494-.027092 2.4409676-47.0079651 27.1425705-.0621376-2.3910523z" fill="#ebeef4"/></g></g></g><g><g><g><path d="m54.1980171 37.7253838-23.0235195-13.3798085 30.043417-17.3455753 23.0235176 13.3798084z" fill="#dbdfe6"/></g><g><g><g><path d="m34.1416588 24.3498363 1.6491432.9584752 25.4248314-14.6791287v-1.9105463z" fill="#ebeef4"/></g><g><path d="m61.2156334 8.7186365v1.9105463l18.4096718 10.6983967 1.6491394-.9521751z" fill="#adb3bc"/></g></g><g><path d="m79.6253052 21.3275795-18.4096718-10.6983967-25.4248314 14.6791287 18.4096718 10.6982917z" fill="#3b5a76"/></g></g></g><g><g><path d="m54.2601547 59.6430664-23.0235214-13.3798065-.0621357-21.9176846 23.0235195 13.3798085z" fill="#adb3bc"/></g></g><g><g><path d="m84.2414322 20.3798084.0621338 21.9160824-13.7640457 7.9466744-16.2793656 9.4005012-.0621376-21.9176826z" fill="#ebeef4"/></g></g></g></g></g><g><g><g><g><path d="m81.5904541 49.1624336c.0097809 16.1230659.0064087 10.5621986.0071335 11.7651825h.0151901l.012085-.0358353-1.3122101-.7575569-.0300369-10.2166557z" fill="#adb3bc"/></g><g><path d="m75.335762 64.5228195 6.2891464-3.6310081-1.312294-.7575913v.9128113l-4.9768524 2.8734207z" fill="#dbdfe6"/></g></g><g><path d="m75.335762 63.9204521 4.9768524-2.8734207-.0300598-11.1294975-4.9467926 2.8560295z" fill="#71d8f8"/></g></g><g><g enable-background="new"><g><g><path d="m75.7277908 63.4427643 5.1699601-2.9848976-.5817032-.338028-4.5882569 2.6490135z" fill="#3b5a76"/></g></g><g><g><path d="m80.8977432 60.4578896-.5816879-.3380356-.0321655-10.1382599.5816803-.4556694z" fill="#375064"/></g></g><g><g><path d="m75.7277908 52.4922638 5.1377564-2.9663239.0322037 10.9319268-5.1699601 2.9848976v.3174743l5.4468003-3.14468-.0340271-11.5659103-5.4127732 3.1250343z" fill="#2a3c4a"/></g></g></g></g><g><g><path d="m81.5998535 50.5071754-5.6318817 3.2605439.0278091 10.3743553-1.2225341.7039795v-12.2454643l6.8266067-4.0849495z" fill="#ebeef4"/></g></g></g><g><g><g><g><path d="m65.0254364 38.7133904c.0000763.104332.0075989 9.8063583.0071335 9.2077103h.0151901l.012085-.0358391-1.3122101-.7575531-.0300369-7.6591835z" fill="#adb3bc"/></g><g><path d="m58.7707405 51.5163002 6.2891502-3.6310043-1.3123016-.7575913v.9128113l-4.9768486 2.8734169z" fill="#dbdfe6"/></g></g><g><path d="m58.7707405 50.9139328 4.9768486-2.8734169-.030056-8.5720253-4.9467926 2.8560295z" fill="#71d8f8"/></g></g><g><g enable-background="new"><g><g><path d="m59.1627655 50.4362488 5.1699677-2.9848976-.581707-.3380318-4.5882607 2.6490135z" fill="#3b5a76"/></g></g><g><g><path d="m64.3327179 47.4513741-.5816803-.3380394-.0321732-7.5807839.5816803-.4556694z" fill="#375064"/></g></g><g><g><path d="m59.1627655 42.0432205 5.137764-2.9663238.0322037 8.3744545-5.1699677 2.9848976v.3174705l5.4468079-3.14468-.0340271-9.0084343-5.4127808 3.1250343z" fill="#2a3c4a"/></g></g></g></g><g><g><path d="m65.0348358 40.058136-5.6318893 3.26054.0278167 7.8168793-1.2225341.7039833v-9.6879921l6.8266067-4.0849495z" fill="#ebeef4"/></g></g></g><g><g><g enable-background="new"><g><g><path d="m66.932373 16.5431099-.0033721.9077702-5.1477433 2.9915428.0033684-.9077702z" fill="#ebeef4"/></g></g><g><g><path d="m61.784626 19.5346527-.0033684.9077702-5.1813736-2.9914666.0033684-.9077701z" fill="#adb3bc"/></g></g><g><g><path d="m66.932373 16.5431099-5.147747 2.9915428-5.1813736-2.9914665 5.1477432-2.9915428z" fill="#dbdfe6"/></g></g></g></g><g><path d="m61.7812576 20.4424229-2.6652679.4521427-4.5294686-2.8089409 2.0167199-1.2331333-.004757.59762z" fill="#2a3c4a"/></g></g><g><g><g enable-background="new"><g><g><path d="m55.7997971 23.0126553-.0033684.9077701-5.1477432 2.9915428.0033645-.9077701z" fill="#ebeef4"/></g></g><g><g><path d="m50.65205 26.0041981-.0033645.9077701-5.1813736-2.9914665.0033645-.9077701z" fill="#adb3bc"/></g></g><g><g><path d="m55.7997971 23.0126553-5.1477471 2.9915428-5.1813736-2.9914665 5.1477471-2.9915429z" fill="#dbdfe6"/></g></g></g></g><g><path d="m50.6486855 26.9119682-2.665268.4521408-4.5294685-2.8089408 2.016716-1.2331315-.0047569.5976201z" fill="#2a3c4a"/></g></g><g><g><g enable-background="new"><g><g><path d="m51.4997597 47.2159004-.0306549 10.812397-15.4111405 8.9569855.0306549-10.8124008z" fill="#dd9d71"/></g></g><g><g><path d="m36.0886192 56.1728821-.0306549 10.8124008-20.2980242-11.718689.030653-10.812397z" fill="#8a4935"/></g></g><g><g><path d="m51.4974136 47.216198-15.4097252 8.9537735-20.301753-11.7116318 15.4201689-8.964283z" fill="#f1b58d"/></g></g></g></g><g><g><g><path d="m46.5366859 53.6541443 1.7981377-1.0381241.0414887 7.2132454-1.804039-1.0483742z" fill="#8a4935"/></g><g><path d="m39.8018265 62.7048645 6.7704468-3.9239731 1.804039 1.0483742v.0000496l-8.5744858 5.0155945z" fill="#dbdfe6"/></g></g><g><path d="m39.8002281 57.4977303v5.2085342l6.7752457-3.9292221c-.0093346-1.1658401-.0430679-5.3791351-.0409889-5.119297l-.9171143.5241394v.0081978z" fill="#71d8f8"/></g></g><g><g enable-background="new"><g><g><path d="m44.5335159 60.2335358-.232315-.135006 2.2803383-1.316494.232315.135006z" fill="#3b5a76"/></g></g><g><g><path d="m42.0869255 61.6460152-.2323189-.135006 2.2824021-1.3176842.2323188.135006z" fill="#3b5a76"/></g></g><g><g><path d="m46.8138542 58.9170418-.232315-.135006-.0170098-3.5681534.2323151.1350098z" fill="#2a3c4a"/></g></g><g><g><path d="m39.6423721 63.0573196-.232315-.1350097 2.2824669-1.3177223.2323188.1350059z" fill="#3b5a76"/></g></g><g><g><path d="m46.7963104 55.1602478-.232315-.1350059-.0056992-2.0095482.2323189.1350059z" fill="#2a3c4a"/></g></g><g><g><path d="m44.3693275 60.328331-.2323188-.135006-.0170098-3.5681533.2323189.1350097z" fill="#2a3c4a"/></g></g><g><g><path d="m44.5159721 56.4767418-.232315-.1350098 2.2803383-1.3164901.232315.1350059z" fill="#3b5a76"/></g></g><g><g><path d="m44.5097466 54.2809715-.2323151-.1350059 2.4444847-1.4112625.2323189.1350059z" fill="#3b5a76"/></g></g><g><g><path d="m44.3517838 56.571537-.2323189-.1350097-.0056954-2.0095444.2323151.1350059z" fill="#2a3c4a"/></g></g><g><g><path d="m44.3455582 54.3757706-.2323189-.1350098.1641922-.0947952.2323151.1350059z" fill="#3b5a76"/></g></g><g><g><path d="m41.9248428 61.7395935-.2323188-.1350059-.0170098-3.5681534.2323189.1350097z" fill="#2a3c4a"/></g></g><g><g><path d="m42.0693817 57.8892212-.2323189-.135006 2.2824021-1.3176879.2323189.1350097z" fill="#3b5a76"/></g></g><g><g><path d="m41.907299 57.9827995-.2323188-.1350059-.0056954-2.0095482.2323151.1350059z" fill="#2a3c4a"/></g></g><g><g><path d="m42.0631561 55.6934547-.2323189-.1350097 2.2824021-1.3176842.2323189.1350098z" fill="#3b5a76"/></g></g><g><g><path d="m41.9010735 55.7870331-.2323189-.1350098.1620826-.0935783.2323189.1350097z" fill="#3b5a76"/></g></g><g><g><path d="m39.4787827 63.3406944-.2323151-.1350097-.0175438-3.7567711.2323151.1350097z" fill="#2a3c4a"/></g></g><g><g><path d="m39.6248283 59.3005219-.232315-.135006 2.2824669-1.3177223.2323188.1350059z" fill="#3b5a76"/></g></g><g><g><path d="m39.4612389 59.5839233-.2323151-.1350097-.0005379-.1886406.2323189.1350059z" fill="#2a3c4a"/></g></g><g><g><path d="m39.4544792 57.1995125-.2323189-.1350098 2.4465943-1.4124794.2323189.1350098z" fill="#3b5a76"/></g></g><g><g><path d="m46.9542351 52.869709c.0004044.102684.0258713 6.5374603.0243034 6.1411819-.5693932.3287239-2.7347717 1.5788574-2.6086769 1.5060577-.2780304.1605148-2.5458794 1.4698029-2.4444847 1.4112625l-2.4465942 1.4124832c-.0004044-.1026878-.0245934-6.243866-.0243034-6.1411819.2463111-.1422042 7.7053527-4.4485015 7.4997558-4.3298034zm-5.0293923 8.8698845-.0170097-3.5681496-2.2824707 1.3177223.0170097 3.5681534zm2.4444847-1.4112625-.0170097-3.5681496-2.282402 1.3176842.0170097 3.5681496zm2.4445267-1.4112892-.0170097-3.5681496-2.2803345 1.3164902.0170059 3.5681534zm-4.9065552-.9342423-.0056992-2.0095482-2.2824669 1.3177223.0056953 2.0095482zm2.4444848-1.4112625-.0056992-2.0095482-2.282402 1.3176842.0056992 2.0095482zm2.4445266-1.4112892-.0056953-2.0095482-2.2803383 1.316494.0056953 2.0095482z" fill="#375064"/></g></g><g><g><path d="m39.4607048 59.3952789-.2323189-.1350059-.0062256-2.1957703.2323189.1350098z" fill="#2a3c4a"/></g></g></g></g><g><path d="m49.4379234 50.5729752v1.4497566l-12.4366035 7.1273689.6895752-1.6727714z" fill="#dd9d71"/></g><g><path d="m39.7741547 56.7610474v6.5431327l-2.1494217 1.0746499v-6.6039582z" fill="#dd9d71"/></g></g></g><g opacity=".3"><path d="m70.5921783 76.4941101-12.4780426.2408524 6.4850007-3.7236939z" fill="#727e28"/></g><g><g><path d="m51.5052986 47.2074814-14.9924888 1.1927376-13.6931439-7.9594193 8.2971134-5.0049019z" fill="#dd9d71"/></g></g></g><g opacity=".5"><path d="m75.6827164 73.5501404-1.8968048 1.095047h15.940895v-1.095047z" fill="#64af5b"/></g><g><g><g><path d="m90.4256668 67.042038c-.000206.1003113-.0153656 7.628418-.0144043 7.1506424 0 .1156616-.0752487.2313156-.2255402.3180542-.4876022.2825165-1.3474808.0864563-1.3474808-.3238449.000206-.1003036.0154419-7.6255188.014473-7.1477432 0 .1156464.0780792.2342072.2313309.3238449.484932.2764282 1.3416214.0934448 1.3416214-.3209534z" fill="#804f59"/></g></g><g><g><g><path d="m90.4256668 65.1501312-.0115814 6.219574c-.5131378.0531006-1.0328293.0558167-1.5729446-.0028763l.0115738-6.2195892c0 .1156464.0780792.2342072.2313309.3238449.4849319.2764282 1.3416213.0934372 1.3416213-.3209534z" fill="#613941"/></g><g><path d="m93.2795944 57.1551666-.0057907 11.1061859c-.0463028.5002441-.3961639.9917984-1.0553589 1.3734589-1.9185562 1.11586-5.2837448.6542358-6.0779114-.8934631-.0809708-.1590271-.1301727-.3180542-.1474686-.4799957h-.0057831v-11.106186c0-2.0153542 1.6307602-3.6461563 3.6461182-3.6461563 2.0412675 0 3.6461945 1.660862 3.6461945 3.6461563z" fill="#5a965a"/></g></g><g><g><path d="m92.5247955 56.3655434-.0059814 11.1048393c-.044838.5009537-.3962708.9929428-1.0542297 1.3742676-1.5039978.8748093-3.9578018.8061905-5.3236389-.1046753-.0822525-.1570129-.1301117-.3170242-.1465454-.4800186h-.0074844v-11.1048394c0-3.0487747 3.5090561-4.7174644 5.8724365-2.8876152.4202193.5936699.6654433 1.3159523.6654433 2.0980416z" fill="#64af5b"/></g></g></g></g><g opacity=".5"><g><path d="m16.4488468 73.0044937v1.0999756h-3.6000967c-.1499023-.3699951-.0700684-.7600098.2299805-1.0999756z" fill="#5a965a"/></g></g><g><g><g><path d="m16.8457985 69.9292755c-.000206.102684-.0084286 4.1847-.0079079 3.9265137 0 .2339096-.4797192.3240433-.7351494.1746521-.0857468-.0492172-.1286182-.1127243-.1286182-.1778259.0002079-.1026917.0084696-4.1831131.007946-3.9249268 0 .2349548.4820099.3277512.7382908.1778259.084156-.0492172.1254387-.1127319.1254387-.176239z" fill="#804f59"/></g></g><g><g><g><path d="m16.8457985 68.8904037-.0063572 3.4152527c-.2817726.0291595-.5671444.0306549-.8637295-.0015793l.0063572-3.4152603c0 .0634995.0428734.1286087.1270294.1778259.2645436.1508027.7367001.0528031.7367001-.176239z" fill="#613941"/></g><g><path d="m18.4129314 64.5002594-.0031796 6.0985565c-.0254288.2746887-.2175407.5446091-.5795155.7541885-.7803307.4538498-2.0490417.4502106-2.8309774 0-.2445211-.1428909-.4144211-.3111954-.506485-.4906158-.0444613-.0873184-.0714798-.1746445-.0809765-.2635727h-.0031786v-6.0985565c0-1.1066589.8954763-2.0021553 2.0021362-2.0021553 1.1254827 0 2.0021764.9163055 2.0021764 2.0021553z" fill="#5a965a"/></g></g><g><g><path d="m17.9984608 64.0666656-.0032864 6.0978165c-.0246181.2750854-.2175961.5452423-.5788918.754631-.7792854.4532776-2.0463057.4532776-2.8305025 0-.0320158-.0188828-.0632296-.0377731-.0927792-.0574799-.045167-.0862198-.0714493-.1740799-.080471-.2635803h-.0041094v-6.0978241c0-1.6741219 1.9268684-2.5904236 3.2246361-1.5856247.2307454.3259889.3654042.7226029.3654042 1.1520615z" fill="#64af5b"/></g></g></g></g><g opacity=".5"><path d="m57.7556267 76.9635696-1.8795738 1.095047h27.7942123v-1.095047z" fill="#64af5b"/></g><g><g><g><path d="m84.5135117 70.4554672-.0115814 6.2195663-.0028229.9310684c0 .1156693-.0752487.2313156-.2255478.3180618-.3094025.1792679-.8067322.1792679-1.1132507 0-.1561508-.0896378-.2342224-.2052841-.2342224-.3238449.0001984-.1003113.0154343-7.6255188.014473-7.1477432 0 .1156464.0780716.2342072.2313309.3238449.4849242.2764283 1.3416213.0934373 1.3416213-.3209533z" fill="#804f59"/></g></g><g><g><g><path d="m84.5135117 68.5635605-.0115814 6.2195663c-.5131378.0531082-1.0328369.0558243-1.5729523-.0028763l.0115814-6.2195892c0 .115654.0780716.2342148.2313309.3238449.4849243.2764282 1.3416214.0934448 1.3416214-.3209457z" fill="#613941"/></g><g><path d="m87.3674393 65.1831284-.0057907 6.4916534c-.1688385 1.8238678-3.9912491 2.6514664-6.210907 1.3734589-.5259171-.3073425-1.0051804-.7681274-1.0698318-1.3734589h-.0057908v-6.4916534c0-3.264164 3.9499969-4.8509521 6.2224808-2.5791969.6592712.6592483 1.0698395 1.5700721 1.0698395 2.5791969z" fill="#5a965a"/></g></g><g><g><path d="m86.6126404 64.3935089-.0059891 6.4902954c-.0448303.5009613-.3962631.9929504-1.0542221 1.3742752-1.5040054.8748093-3.9578018.8061829-5.3236389-.1046829-.0822525-.1570129-.1301193-.3170242-.1465454-.480011h-.0074844v-6.490303c0-3.0487785 3.5090485-4.7174683 5.8724365-2.8876152.4202118.5936661.6654434 1.3159485.6654434 2.0980415z" fill="#64af5b"/></g></g></g></g></g></svg>