<svg width="127" height="80" viewBox="0 0 127 80" fill="none" xmlns="http://www.w3.org/2000/svg">
<path d="M63.2822 79.9337C63.047 79.9337 62.8118 79.8749 62.606 79.7574C61.9297 79.3753 61.6651 78.4937 62.0473 77.8178C69.1626 64.9755 77.5715 54.2785 87.0977 46.05C106.767 29.0347 124.262 28.0062 124.967 27.9768C125.585 27.9474 126.173 28.3294 126.378 28.9172C126.614 29.5049 126.408 30.1515 125.937 30.5629C125.673 30.7686 102.916 49.0769 92.4194 70.0301C97.7705 64.9461 103.739 62.507 108.296 61.3315C114.853 59.627 119.91 60.0972 120.116 60.1266C120.733 60.1854 121.233 60.6262 121.38 61.2139C121.527 61.8017 121.263 62.4482 120.733 62.7715C113.912 67.062 108.12 72.6162 103.504 79.3459C103.063 79.9925 102.151 80.1688 101.505 79.728C100.858 79.2872 100.681 78.3762 101.122 77.7296C105.033 72.0285 109.766 67.1208 115.235 63.0653C113.471 63.2123 111.295 63.5355 108.914 64.1527C100.828 66.2685 94.3893 70.7942 89.7732 77.5827C89.3616 78.1704 89.0088 78.7288 88.6854 79.2872C88.3031 79.9337 87.5387 80.1688 86.8918 79.8749C86.2156 79.581 85.8922 78.8464 86.098 78.1411C89.2734 67.5322 96.6532 55.8948 108.032 43.6403C112.736 38.5562 117.205 34.3832 120.233 31.709C113.794 33.149 101.799 37.2044 89.0088 48.2835C79.7472 56.3062 71.5147 66.7094 64.5759 79.2578C64.2819 79.6692 63.782 79.9337 63.2822 79.9337ZM63.2822 79.9337C62.5472 79.9337 61.9297 79.3753 61.8415 78.6406C60.489 65.5926 55.1967 34.4126 35.0859 15.399C37.0852 23.5099 40.9074 40.3195 39.9372 47.2549C39.8196 48.0484 39.1139 48.6067 38.3201 48.4892C37.5262 48.3716 36.9676 47.6663 37.0852 46.8729C38.2907 38.3505 31.2342 11.9313 31.1754 11.6374C30.999 11.0497 31.2636 10.4031 31.7635 10.0505C32.2927 9.72722 32.9689 9.75661 33.4688 10.1386C43.73 18.4259 51.8155 30.5629 57.4606 46.2264C60.3714 54.2491 62.1649 62.0074 63.2822 68.2963C66.2812 51.5455 73.8962 25.6846 93.0956 10.1974C93.566 9.81539 94.2717 9.75661 94.8009 10.1093C95.3302 10.4325 95.5654 11.079 95.389 11.6962C95.3008 11.9607 88.2737 38.3505 89.4792 46.9317C89.5968 47.7251 89.0382 48.4304 88.2443 48.548C87.4505 48.6655 86.7448 48.1071 86.6272 47.3137C85.6276 40.3783 89.4498 23.5687 91.4785 15.4578C71.4559 34.3832 66.1048 65.5926 64.7523 78.6406C64.6641 79.3753 64.0466 79.9337 63.2822 79.9337ZM63.2822 79.9337C62.7824 79.9337 62.2825 79.6692 62.0473 79.199C55.1379 66.8563 46.435 55.836 37.585 48.1659C24.7952 37.0575 12.7699 33.0314 6.36032 31.5914C9.3887 34.2951 13.8578 38.4387 18.5915 43.5227C29.97 55.8066 37.3498 67.4441 40.4958 78.0823C40.7016 78.7582 40.3782 79.5223 39.702 79.8161C39.0257 80.11 38.2613 79.8455 37.9084 79.2284C37.5556 78.6406 37.1734 78.0529 36.7618 77.4651C32.1751 70.6767 25.7361 66.151 17.6212 64.0351C15.2397 63.3886 13.0345 63.0947 11.2704 62.9478C16.6803 66.9739 21.4434 71.9109 25.4127 77.6415C25.8537 78.288 25.7067 79.199 25.0305 79.6398C24.3836 80.0806 23.4722 79.9337 23.0311 79.2578C18.3562 72.4987 12.5347 66.9151 5.77228 62.6539C5.24305 62.3306 4.97843 61.7135 5.12544 61.0964C5.27245 60.4792 5.77228 60.0678 6.36032 60.009C6.56613 59.9797 11.6232 59.5095 18.1798 61.1845C22.7665 62.36 28.7351 64.7992 34.0568 69.8832C23.531 48.9594 0.803375 30.651 0.538758 30.4453C0.0683295 30.0633 -0.137483 29.4168 0.0977313 28.7996C0.332946 28.2119 0.891581 27.8592 1.50902 27.8592C2.24406 27.8886 19.7381 28.8878 39.3785 45.9325C45.8175 51.5161 55.3731 61.5666 64.4583 77.7296C64.8405 78.4055 64.6053 79.2872 63.8996 79.6692C63.782 79.8749 63.5468 79.9337 63.2822 79.9337ZM53.8148 42.3178C53.6972 42.3178 53.5796 42.2884 53.462 42.2884C52.6976 42.1121 52.2271 41.3187 52.4329 40.5546L62.3413 1.08733C62.5178 0.44081 63.0764 0 63.7232 0C64.3701 0 64.9581 0.44081 65.1051 1.05795L75.0723 38.4681C75.2781 39.2322 74.8077 40.0256 74.0433 40.2313C73.2788 40.437 72.485 39.9668 72.2792 39.2028L63.7526 7.14114L55.1967 41.2305C55.0497 41.877 54.4617 42.3178 53.8148 42.3178ZM120.057 79.9337H6.53673C5.74288 79.9337 5.09604 79.2872 5.09604 78.4937C5.09604 77.7002 5.74288 77.0537 6.53673 77.0537H120.057C120.851 77.0537 121.498 77.7002 121.498 78.4937C121.498 79.2872 120.851 79.9337 120.057 79.9337Z" fill="url(#paint0_linear_1998_59)"/>
<defs>
<linearGradient id="paint0_linear_1998_59" x1="19.376" y1="92.5104" x2="91.2171" y2="-1.66128" gradientUnits="userSpaceOnUse">
<stop offset="0.0909998" stop-color="#055300"/>
<stop offset="1" stop-color="#FECA02"/>
</linearGradient>
</defs>
</svg>
