<svg width="107" height="80" viewBox="0 0 107 80" fill="none" xmlns="http://www.w3.org/2000/svg">
<path d="M65.2754 7.18429C68.5685 6.2469 73.7192 5.53576 79.5556 7.47164C82.7267 8.52321 85.7207 10.2235 88.4544 12.5252C89.6678 13.5497 91.307 13.4369 92.4135 12.2323C93.1547 11.4437 93.5609 10.3001 93.528 9.09443C93.4954 7.89248 93.0295 6.78837 92.2502 6.0657C90.0239 4.00142 86.3461 1.33751 81.4684 0.370106C73.2693 -1.2551 66.8349 2.8882 64.449 4.74527C64.0004 5.09454 63.8217 5.79121 64.0261 6.3946C64.2305 6.99772 64.7588 7.33064 65.2756 7.18402L65.2754 7.18429ZM81.1221 3.01686C85.5598 3.89688 88.9107 6.32518 90.9406 8.20718C91.551 8.86016 91.4487 9.68094 90.9643 10.2315C90.606 10.6127 90.0792 10.6462 89.6833 10.3127C86.7469 7.84021 83.5299 6.0137 80.1218 4.88332C77.2688 3.93709 74.5695 3.57951 72.1412 3.5653C74.6755 2.75685 77.7347 2.34512 81.1223 3.01713L81.1221 3.01686Z" fill="url(#paint0_linear_1998_52)"/>
<path d="M75.7781 9.51052C70.7199 8.41606 66.5915 10.1327 64.5807 11.2534C64.111 11.5153 63.855 12.1474 63.9675 12.7671C64.0803 13.3868 64.5276 13.8214 65.0464 13.8147C68.3774 13.7541 71.6294 14.4754 74.7062 15.9642C76.6789 16.9187 78.5536 18.1823 80.2785 19.7207C81.4218 20.7412 83.0136 20.6358 84.0608 19.4585C84.7276 18.709 85.0827 17.6422 85.0352 16.5316C84.988 15.4275 84.5471 14.4194 83.8257 13.7656C81.4419 11.6051 78.6592 10.1337 75.7783 9.51052H75.7781ZM82.593 17.4789C82.3065 17.8006 81.87 17.8304 81.555 17.5494C79.6819 15.8789 77.6454 14.506 75.5021 13.4691C74.1243 12.8025 72.7152 12.2774 71.2807 11.8949C72.54 11.7823 73.926 11.8313 75.4011 12.1506C78.6252 12.8483 81.06 14.588 82.5349 15.9245C83.0038 16.4183 82.9406 17.0316 82.5928 17.4789H82.593Z" fill="url(#paint1_linear_1998_52)"/>
<path d="M12.3386 12.2343C13.4464 13.4368 15.0825 13.5491 16.2955 12.5254C19.0292 10.2237 22.0232 8.52313 25.1943 7.47155C31.0307 5.53567 36.1813 6.24682 39.4745 7.1842C39.9915 7.33056 40.5194 6.9979 40.724 6.39478C40.9284 5.79166 40.7497 5.09472 40.3011 4.74545C37.9152 2.88838 31.4808 -1.25546 23.2817 0.370286C18.4038 1.33769 14.7262 4.0016 12.4999 6.06588C11.7206 6.78855 11.2549 7.8924 11.2221 9.09435C11.1892 10.2998 11.5954 11.4436 12.3386 12.2341V12.2343ZM13.8095 8.20736C15.8392 6.32536 19.1903 3.89706 23.628 3.01704C24.809 2.78277 25.9492 2.68037 27.042 2.68037C29.0841 2.68037 30.9577 3.03849 32.6087 3.56548C30.1806 3.57969 27.4811 3.93754 24.6283 4.8835C21.2202 6.01388 18.0032 7.8404 15.0666 10.3129C14.6709 10.6461 14.1438 10.6126 13.7838 10.2296C13.3005 9.67549 13.2 8.86114 13.8095 8.20736Z" fill="url(#paint2_linear_1998_52)"/>
<path d="M40.1685 11.2532C38.1577 10.1325 34.0293 8.41506 28.9711 9.51033C26.0905 10.1335 23.3076 11.6049 20.9237 13.7654C20.2025 14.4192 19.7617 15.4273 19.7142 16.5314C19.6666 17.642 20.0218 18.7088 20.6886 19.4583C21.7359 20.6359 23.3276 20.7407 24.4709 19.7202C26.1956 18.1821 28.0706 16.9182 30.0432 15.964C33.12 14.4752 36.3705 13.7525 39.7031 13.8145C40.2153 13.8319 40.6692 13.3869 40.7819 12.7669C40.8945 12.1472 40.6383 11.5151 40.1685 11.2532ZM29.2472 13.4689C27.104 14.506 25.0674 15.8787 23.1942 17.5492C22.879 17.8302 22.4423 17.8004 22.1562 17.4787C21.8082 17.0308 21.745 16.4183 22.2141 15.9243C23.689 14.5878 26.1238 12.8481 29.3479 12.1504C30.3584 11.9319 31.3269 11.8397 32.2417 11.8397C32.6624 11.8397 33.0717 11.8593 33.4683 11.8947C32.0342 12.2772 30.6245 12.8026 29.2469 13.4689H29.2472Z" fill="url(#paint3_linear_1998_52)"/>
<path d="M106.132 77.5044C100.705 73.5664 94.4283 72.1747 88.3997 73.3265V66.5699C95.7089 66.1928 101.562 58.7557 101.562 49.6641V49.0403C101.562 48.3002 101.074 47.7001 100.473 47.7001H99.9667C94.7687 47.7001 90.2363 51.2722 87.9012 56.5268C86.2949 49.3757 80.967 44.1082 74.6554 44.1082H74.1488C73.5478 44.1082 73.0604 44.7083 73.0604 45.4484V46.0722C73.0604 55.1637 78.9131 62.6009 86.2224 62.978V73.8583C83.8855 74.5523 81.607 75.6352 79.4543 77.1141C74.0248 73.3847 67.7974 72.1551 61.8398 73.4174V42.3613C61.8398 41.6212 61.3524 41.021 60.7513 41.021H57.747V38.1016C60.0367 37.8561 61.8398 35.486 61.8398 32.6041C61.8398 29.5593 59.8281 27.0822 57.3552 27.0822H56.0055V19.5014C56.0055 18.7613 55.5181 18.1611 54.9171 18.1611H49.832C49.2309 18.1611 48.7435 18.7613 48.7435 19.5014V27.0822H47.3939C44.9212 27.0822 42.9093 29.5593 42.9093 32.6041C42.9093 35.4862 44.7124 37.8561 47.002 38.1016V41.021H43.9977C43.3967 41.021 42.9093 41.6212 42.9093 42.3613V73.0962C37.5473 72.4446 32.0607 73.783 27.2106 77.1144C24.7473 75.4221 22.1192 74.2478 19.4272 73.5833V66.5702C26.7365 66.1931 32.5892 58.7559 32.5892 49.6644V49.0406C32.5892 48.3005 32.1018 47.7003 31.5008 47.7003H30.9942C25.7963 47.7003 21.2639 51.2724 18.9287 56.5271C17.3224 49.3759 11.9946 44.1084 5.68296 44.1084H5.1764C4.57537 44.1084 4.08797 44.7086 4.08797 45.4487V46.0725C4.08797 55.164 9.94069 62.6012 17.2499 62.9783V73.156C11.5372 72.3385 5.65793 73.7876 0.53598 77.5049C0.018104 77.8807 -0.154304 78.7023 0.150893 79.34C0.458048 79.9836 1.13222 80.1868 1.64117 79.8142C9.3562 74.2151 18.9418 74.2146 26.6571 79.8142C26.9919 80.057 27.4281 80.057 27.7631 79.8142C35.4781 74.2151 45.0638 74.2151 52.779 79.8142C53.1199 80.0616 53.5433 80.0619 53.8842 79.8142C61.5999 74.2148 71.1857 74.2148 78.9014 79.8142C79.2423 80.0616 79.6654 80.0619 80.0066 79.8142C87.7229 74.2148 97.3096 74.2148 105.025 79.8142C105.543 80.19 106.211 79.9777 106.516 79.34C106.821 78.7023 106.649 77.8807 106.131 77.5049L106.132 77.5044ZM99.3698 50.3994C99.0683 57.6698 94.3192 63.5176 88.4149 63.8889C88.7164 56.6185 93.4655 50.7706 99.3698 50.3994ZM75.2529 46.8075C81.1573 47.1787 85.9063 53.0266 86.2078 60.297C80.3035 59.9257 75.5544 54.0779 75.2529 46.8075ZM30.398 50.3994C30.0965 57.6698 25.3474 63.5176 19.4431 63.8889C19.7446 56.6185 24.4937 50.7706 30.398 50.3994ZM6.28116 46.8075C12.1855 47.1787 16.9345 53.0266 17.236 60.297C11.3317 59.9257 6.58266 54.0779 6.28116 46.8075ZM50.921 20.8411H53.8293V27.0817H50.921V20.8411ZM45.0868 32.6036C45.0868 31.0368 46.1219 29.7622 47.3945 29.7622H57.3561C58.6284 29.7622 59.6638 31.0368 59.6638 32.6036C59.6638 34.1703 58.6287 35.4452 57.3561 35.4452H47.3945C46.1221 35.4452 45.0868 34.1706 45.0868 32.6036ZM55.5708 38.1257V41.0207H49.1795V38.1257H55.5708ZM59.6635 73.9905C57.4795 74.6871 55.351 75.728 53.3326 77.1141C50.7284 75.3251 47.9403 74.1138 45.0868 73.4734V43.7013H59.6635V73.9905Z" fill="url(#paint4_linear_1998_52)"/>
<path d="M49.4318 69.5483C50.0329 69.5483 50.5203 68.9481 50.5203 68.208V58.3844C50.5203 57.6443 50.0329 57.0442 49.4318 57.0442C48.8308 57.0442 48.3434 57.6443 48.3434 58.3844V68.208C48.3434 68.9481 48.8308 69.5483 49.4318 69.5483Z" fill="url(#paint5_linear_1998_52)"/>
<path d="M49.4318 52.3629C50.0329 52.3629 50.5203 51.7627 50.5203 51.0226V49.2768C50.5203 48.5367 50.0329 47.9365 49.4318 47.9365C48.8308 47.9365 48.3434 48.5367 48.3434 49.2768V51.0226C48.3434 51.7627 48.8308 52.3629 49.4318 52.3629Z" fill="url(#paint6_linear_1998_52)"/>
<defs>
<linearGradient id="paint0_linear_1998_52" x1="16.3412" y1="92.5104" x2="90.4566" y2="10.5742" gradientUnits="userSpaceOnUse">
<stop offset="0.0909998" stop-color="#055300"/>
<stop offset="1" stop-color="#FECA02"/>
</linearGradient>
<linearGradient id="paint1_linear_1998_52" x1="16.3412" y1="92.5104" x2="90.4566" y2="10.5742" gradientUnits="userSpaceOnUse">
<stop offset="0.0909998" stop-color="#055300"/>
<stop offset="1" stop-color="#FECA02"/>
</linearGradient>
<linearGradient id="paint2_linear_1998_52" x1="16.3412" y1="92.5104" x2="90.4566" y2="10.5742" gradientUnits="userSpaceOnUse">
<stop offset="0.0909998" stop-color="#055300"/>
<stop offset="1" stop-color="#FECA02"/>
</linearGradient>
<linearGradient id="paint3_linear_1998_52" x1="16.3412" y1="92.5104" x2="90.4566" y2="10.5742" gradientUnits="userSpaceOnUse">
<stop offset="0.0909998" stop-color="#055300"/>
<stop offset="1" stop-color="#FECA02"/>
</linearGradient>
<linearGradient id="paint4_linear_1998_52" x1="16.3412" y1="92.5104" x2="90.4566" y2="10.5742" gradientUnits="userSpaceOnUse">
<stop offset="0.0909998" stop-color="#055300"/>
<stop offset="1" stop-color="#FECA02"/>
</linearGradient>
<linearGradient id="paint5_linear_1998_52" x1="16.3412" y1="92.5104" x2="90.4566" y2="10.5742" gradientUnits="userSpaceOnUse">
<stop offset="0.0909998" stop-color="#055300"/>
<stop offset="1" stop-color="#FECA02"/>
</linearGradient>
<linearGradient id="paint6_linear_1998_52" x1="16.3412" y1="92.5104" x2="90.4566" y2="10.5742" gradientUnits="userSpaceOnUse">
<stop offset="0.0909998" stop-color="#055300"/>
<stop offset="1" stop-color="#FECA02"/>
</linearGradient>
</defs>
</svg>
