<svg width="97" height="80" viewBox="0 0 97 80" fill="none" xmlns="http://www.w3.org/2000/svg">
<path d="M81.869 18.5095C81.881 14.1539 80.4396 9.78501 77.6163 6.45007C72.6843 0.621944 63.9439 -1.5895 56.8293 1.19689C50.5299 3.66425 47.5731 8.88854 47.8363 13.2439C35.6177 12.6397 27.6778 24.2408 29.7227 35.659C30.2739 38.711 31.5332 41.6349 33.3788 44.2325L15.6976 43.5843C15.6467 42.5341 15.5386 41.4408 14.9052 40.5657C14.2447 39.6572 12.9669 39.175 11.5786 39.3116C10.2489 39.4399 9.17994 40.1067 8.72511 41.0825C8.41793 41.7193 8.37088 42.5498 8.38733 43.3745C7.55646 43.417 6.70188 43.5518 5.86872 43.9169C4.15247 44.6698 2.95169 46.3267 2.81034 48.1386C2.6141 50.6368 4.31543 53.4339 8.21997 54.0006L8.02029 61.7819C6.59573 61.7486 5.00725 61.728 3.51402 62.14C1.56806 62.6778 0.197052 63.9484 0.0201288 65.3757C-0.173817 66.9364 1.04819 68.4989 3.06243 69.2632C4.60979 69.85 6.36467 69.9345 7.80989 69.9908C7.74773 72.1942 7.68844 74.3989 7.63316 76.6027C7.62111 77.0757 7.73377 77.5277 7.93479 77.9402C6.17474 77.9701 4.41011 77.9903 2.6558 78.0315C2.1126 78.0439 1.68186 78.4949 1.6943 79.0385C1.70673 79.574 2.14511 80 2.67875 80C2.6864 80 2.69405 80 2.70189 79.9994C30.1504 79.3583 57.9184 80.1584 85.3963 79.5159C85.9395 79.5035 86.3703 79.0525 86.3578 78.5089C86.3454 77.9733 85.907 77.5474 85.3734 77.5474C85.3657 77.5474 85.3581 77.5474 85.3502 77.5479C78.8634 77.6994 72.3247 77.766 65.8055 77.7945C65.6543 71.1298 65.489 59.2815 65.3605 50.4753C73.7625 54.8896 85.339 53.132 90.4785 48.7421C101.755 39.1113 96.1775 20.4132 81.869 18.5095ZM34.0132 46.2263L35.6015 52.5481C34.7852 52.5745 33.9684 52.5965 33.1515 52.6156L31.5147 46.1347L34.0132 46.2263ZM45.9437 51.9997C45.7251 52.0303 45.4975 52.0539 45.2548 52.0703C44.6737 52.1097 44.0905 52.139 43.5089 52.1745L42.0866 46.5226C44.0366 46.5958 43.9379 46.5964 44.5739 46.5568L45.9437 51.9997ZM45.5753 46.4991C46.1306 46.479 46.699 46.4971 46.9517 46.6641C47.2487 46.8617 47.5988 47.5361 47.7112 48.5971C47.8564 49.9646 47.5324 51.117 47.1537 51.5064C47.0758 51.5864 46.9802 51.6432 46.8848 51.7012L45.5753 46.4991ZM42.5072 52.2331C41.6945 52.2805 40.8816 52.314 40.0691 52.3538L38.565 46.3954C39.0439 46.4126 39.0219 46.4115 41.0614 46.4859L42.5072 52.2331ZM42.2609 62.5692C42.1618 62.5669 37.7678 62.4672 38.0478 62.4736C38.1199 59.7906 38.1911 57.1054 38.2584 54.4225C38.6949 54.4042 41.9761 54.2412 42.1801 54.2297C42.2396 57.0515 42.2666 59.8484 42.2609 62.5692ZM38.4814 44.4194C38.4535 43.833 38.3513 42.4128 38.5776 41.9299C38.739 41.5886 39.2371 41.3299 39.8476 41.2713C40.5033 41.2069 41.158 41.3987 41.3937 41.7218C41.8311 42.3271 41.7986 43.5767 41.8542 44.5426C41.5876 44.5323 42.9496 44.582 38.4814 44.4194ZM39.0667 52.4033C38.9607 52.4081 37.3835 52.4903 36.61 52.5183L35.0388 46.264L37.4671 46.3529C37.4711 46.3531 37.4746 46.3556 37.4786 46.3558L37.5406 46.3581L39.0667 52.4033ZM36.2853 54.499C36.2191 57.1416 36.1493 59.7864 36.0789 62.429L16.145 61.9682C16.1474 59.5496 16.1226 57.0702 16.0704 54.4552C22.7634 54.7123 29.1913 54.7446 36.2853 54.499ZM30.4906 46.097L32.1438 52.6433C31.3186 52.6596 30.4929 52.664 29.6676 52.673L27.9896 46.0054L30.4906 46.097ZM26.9638 45.9677L28.6541 52.6847C27.8309 52.6904 27.008 52.691 26.1848 52.6894L24.4645 45.8761L26.9638 45.9677ZM23.4405 45.8386L25.169 52.685C24.3427 52.6805 23.5162 52.6768 22.6903 52.6648L20.9492 45.7474L23.4405 45.8386ZM19.9237 45.7097L21.669 52.6439C20.8394 52.6288 20.0097 52.6158 19.1808 52.593L17.4255 45.6181L19.9237 45.7097ZM16.3997 45.5806L18.1563 52.5607C17.322 52.5347 16.4883 52.503 15.6549 52.4693L13.9001 45.4888L16.3997 45.5806ZM12.1188 52.2977L10.3759 45.3625L12.8747 45.4515L14.628 52.427C13.7905 52.3905 12.9548 52.3419 12.1188 52.2977ZM14.1783 61.9227C14.0383 61.9195 10.104 61.8271 9.98939 61.8246L10.1854 54.1722C11.4889 54.2504 12.7943 54.3206 14.1013 54.3802C14.1544 57.0102 14.1805 59.4949 14.1783 61.9227ZM10.5039 41.9268C10.6625 41.5875 11.1586 41.3302 11.7682 41.2711C12.4334 41.2067 13.0757 41.3981 13.3123 41.722C13.6065 42.1292 13.6853 42.8166 13.7237 43.5107L12.4502 43.465L10.3568 43.3881C10.3442 42.8114 10.3637 42.2164 10.5039 41.9268ZM4.77371 48.2914C4.84792 47.336 5.40566 46.562 6.05214 46.0796L7.49698 51.8249C5.56211 51.2515 4.66564 49.6665 4.77371 48.2914ZM6.95206 45.6181C7.61212 45.3907 8.33072 45.3247 9.06174 45.3247C9.15852 45.3247 9.2553 45.33 9.35209 45.3318L11.0894 52.2451C10.9536 52.2373 9.73405 52.1828 9.33564 52.138C9.33392 52.1378 9.33258 52.1388 9.33085 52.1386C9.06748 52.1164 8.81501 52.0845 8.56961 52.0504L6.95206 45.6181ZM13.9111 76.7133C13.8918 77.2174 13.4795 77.6126 12.9728 77.6126H10.5376C10.0106 77.6126 9.58811 77.1798 9.60207 76.6526C9.65697 74.4557 9.71454 72.2584 9.77613 70.0625C11.2154 70.1124 12.6576 70.1568 14.0997 70.1933C14.0582 72.3185 13.9947 74.5072 13.9111 76.7133ZM15.6379 77.8326C15.7772 77.5108 15.8642 77.1602 15.8783 76.7882C15.9627 74.5651 16.0224 72.3719 16.0642 70.2302C23.8196 70.3987 28.9027 70.3884 35.8796 70.2591L35.7155 76.6006C35.705 77.0088 35.7811 77.4039 35.9301 77.7702C29.2139 77.7578 22.43 77.7687 15.6379 77.8326ZM3.76037 67.422C2.66632 67.0066 1.898 66.2314 1.97412 65.618C2.0491 65.0122 2.91726 64.3474 4.03924 64.0374C4.93724 63.7893 5.92074 63.7336 6.91208 63.7336C7.96023 63.7336 45.8204 64.6557 47.1325 64.597C48.9682 64.5174 50.3788 64.3109 50.533 66.0315C50.6862 67.7432 49.3877 67.8669 47.6516 67.9423C42.158 68.1774 8.0046 69.0316 3.76037 67.422ZM41.9916 76.7129V76.7134C41.9722 77.2176 41.5608 77.6128 41.0532 77.6128H38.6189C38.0949 77.6128 37.6704 77.1811 37.6844 76.6519L37.8498 70.2323C39.2949 70.2002 40.738 70.1608 42.1801 70.1145C42.1386 72.2768 42.0753 74.4915 41.9916 76.7129ZM43.7342 77.7884C43.8623 77.4777 43.9455 77.1425 43.9587 76.7863C44.045 74.5062 44.1058 72.2418 44.1475 70.024C45.3428 69.9818 46.5437 69.9602 47.7361 69.9091C50.5757 69.7873 52.7701 68.9558 52.4943 65.8561C52.2156 62.731 49.8928 62.5034 47.0468 62.6296C45.5801 62.691 46.2687 62.6419 44.2238 62.6172C44.2305 59.8394 44.203 56.9903 44.1418 54.1085C44.5567 54.0821 44.973 54.0626 45.3873 54.0344C46.1501 53.983 47.2516 53.9072 48.1699 53.2242C48.8952 53.3042 49.6241 53.3537 50.357 53.3537C54.918 53.3537 59.5469 51.8182 63.3696 49.0244C63.5121 58.6974 63.6788 70.8226 63.8359 77.8039C57.7478 77.823 49.1499 77.8085 43.7342 77.7884ZM89.1997 47.245C84.8518 50.9571 73.4693 53.1104 65.3266 48.1855C65.309 46.9891 65.2912 45.8042 65.2734 44.6367C71.8773 45.7407 77.6963 40.8681 78.0606 34.4653C78.0924 33.9221 77.677 33.4573 77.1338 33.4259C76.6001 33.3932 76.1262 33.81 76.0954 34.3528C75.7872 39.7332 70.7552 43.7796 65.2423 42.6316C65.1625 37.532 65.0822 32.9131 65.0024 29.5961C64.989 29.0606 64.5516 28.6352 64.018 28.6352C64.0103 28.6352 64.0027 28.6352 63.9939 28.6358C63.4507 28.6488 63.0209 29.0996 63.0333 29.6434C63.0871 31.8791 63.1412 34.7128 63.1953 37.8828C59.2441 38.4079 55.059 35.6605 54.0083 31.395C53.8785 30.8667 53.3431 30.5456 52.8171 30.6745C52.2892 30.8048 51.9662 31.3384 52.097 31.8661C53.3697 37.034 58.3907 40.4049 63.2284 39.8678C63.2632 41.9957 63.2978 44.2411 63.3325 46.5431C59.3975 49.8669 54.3136 51.6097 49.415 51.3538C49.7182 50.3768 49.7618 49.2623 49.6694 48.3892C49.5713 47.4724 49.231 45.8164 48.0417 45.0252C47.1158 44.4089 45.7832 44.5016 44.7162 44.5762C44.3862 44.5996 44.0856 44.6223 43.8285 44.6143C43.7432 43.251 43.8256 41.7258 42.9856 40.5627C42.3213 39.6565 41.0492 39.1773 39.6581 39.3114C38.3303 39.4397 37.2613 40.105 36.796 41.0915C36.3865 41.9622 36.4488 43.1938 36.5027 44.2802C36.5039 44.3035 36.5047 44.324 36.5058 44.3473L35.9288 44.3261C33.7276 41.6747 32.2488 38.5693 31.661 35.3105C28.8729 19.756 45.0731 9.94109 55.417 17.9231C55.8487 18.2563 56.4659 18.1744 56.7986 17.7452C57.1302 17.315 57.0505 16.6963 56.6207 16.3646C54.6453 14.8402 52.2932 13.8833 49.8251 13.4658C49.4307 9.88906 51.8899 5.24603 57.5464 3.03058C63.8976 0.544862 71.7073 2.5153 76.1126 7.72238C80.5198 12.9285 81.1764 20.9551 77.6739 26.8082C77.395 27.2749 77.5469 27.8797 78.0132 28.1586C78.4811 28.4394 79.086 28.2837 79.3639 27.8197C80.7024 25.5822 81.4853 23.0594 81.7569 20.4773C94.3356 22.2876 99.1141 38.778 89.1997 47.245ZM45.5095 19.9981C45.5451 20.2678 45.3548 20.5153 45.0855 20.5505C42.0954 20.9438 39.3016 22.669 37.6113 25.1654C35.9211 27.6622 35.3559 30.8975 36.0999 33.8188C36.1795 34.1303 35.9427 34.4325 35.6231 34.4325C35.403 34.4325 35.2029 34.2845 35.1463 34.0619C34.334 30.8719 34.9502 27.3396 36.7962 24.6134C38.6421 21.8873 41.6928 20.0039 44.9568 19.5747C45.2221 19.5399 45.474 19.7279 45.5095 19.9981ZM43.528 23.0232C43.629 23.2755 43.5068 23.562 43.2539 23.6636C41.5694 24.3386 40.1322 25.5715 39.2092 27.1353C38.2852 28.6985 37.8988 30.5517 38.1199 32.3538C38.1536 32.6239 37.9614 32.8691 37.6911 32.9024C37.4356 32.9389 37.1773 32.7525 37.1431 32.4742C36.895 30.4576 37.3277 28.3837 38.3613 26.6344C39.3949 24.8846 41.0023 23.5048 42.8886 22.7491C43.1376 22.6483 43.427 22.7704 43.528 23.0232ZM45.1481 22.6246C45.1481 22.8968 44.9279 23.117 44.6557 23.117H44.3067C44.0345 23.117 43.8143 22.8968 43.8143 22.6246C43.8143 22.3525 44.0345 22.1323 44.3067 22.1323H44.6557C44.9279 22.1325 45.1481 22.3526 45.1481 22.6246ZM77.0473 18.9601C77.0001 19.2264 76.7459 19.4065 76.4762 19.3587C76.209 19.3111 76.0301 19.056 76.0782 18.7882C76.9501 13.8864 74.2198 8.57161 69.7269 6.42616C65.2352 4.28071 59.3858 5.49602 56.1207 9.2552C55.9409 9.46043 55.6303 9.48166 55.4256 9.30378C55.2208 9.12552 55.1988 8.81433 55.3767 8.6091C58.9224 4.52878 65.2736 3.20827 70.1519 5.53772C75.0292 7.86717 77.9933 13.6377 77.0473 18.9601ZM73.8765 16.732C73.8281 9.85903 67.8053 6.17732 63.4497 8.62822C63.2152 8.76039 62.9132 8.67814 62.7795 8.44116C62.6458 8.20418 62.7296 7.9037 62.9669 7.77058C67.9428 4.96793 74.8072 9.0689 74.8607 16.7254C74.8626 16.997 74.6435 17.219 74.3722 17.2209C74.3703 17.2209 74.3694 17.2209 74.3684 17.2209C74.0985 17.2209 73.8784 17.0027 73.8765 16.732ZM74.9696 18.0814V18.664C74.9696 18.9362 74.7494 19.1564 74.4772 19.1564C74.2051 19.1564 73.9849 18.9362 73.9849 18.664V18.0814C73.9849 17.8093 74.2051 17.5891 74.4772 17.5891C74.7494 17.5891 74.9696 17.8095 74.9696 18.0814ZM89.7871 29.7105C91.8687 33.9509 91.3427 39.3229 88.4777 43.0777C85.5985 46.8508 80.5496 48.7541 75.9311 47.8704C75.6639 47.819 75.4889 47.5614 75.5397 47.2942C75.5906 47.027 75.8523 46.8533 76.1156 46.9034C80.3949 47.7249 85.0511 45.9473 87.6952 42.4809C90.3391 39.0155 90.8247 34.0579 88.9027 30.1443C88.7835 29.9006 88.8843 29.6055 89.1276 29.4858C89.3728 29.3672 89.667 29.4657 89.7871 29.7105ZM17.582 66.0443C17.5781 66.314 17.3589 66.5303 17.0896 66.5303C17.0877 66.5303 17.0858 66.5303 17.0829 66.5303L6.69671 66.3957C6.4255 66.3922 6.20726 66.1689 6.21128 65.8973C6.2151 65.6276 6.43429 65.4112 6.7036 65.4112H6.71029L17.0965 65.5459C17.3675 65.5491 17.5858 65.7727 17.582 66.0443Z" fill="url(#paint0_linear_1998_44)"/>
<defs>
<linearGradient id="paint0_linear_1998_44" x1="14.7814" y1="92.5104" x2="89.2701" y2="18.0218" gradientUnits="userSpaceOnUse">
<stop offset="0.0909998" stop-color="#055300"/>
<stop offset="1" stop-color="#FECA02"/>
</linearGradient>
</defs>
</svg>
