<svg width="80" height="80" viewBox="0 0 80 80" fill="none" xmlns="http://www.w3.org/2000/svg">
<path d="M53.8215 26.4758C54.3387 27.7102 55.9501 30.8701 59.39 32.3713C60.6214 32.9081 61.9436 33.1775 63.3471 33.1775C64.71 33.1775 66.1492 32.9238 67.6556 32.4169C77.5812 29.077 79.8848 18.1798 79.9783 17.7179C80.0448 17.3873 79.9569 17.0473 79.7341 16.7742C79.4191 16.388 71.9127 7.34069 63.1957 9.42001C59.2393 10.3644 56.3694 12.2087 54.6658 14.9017C52.6901 18.0254 52.7744 21.5466 53.1201 23.769C50.108 25.5821 48.0716 28.3726 46.7973 30.6826C46.5666 29.1907 46.4288 27.5458 46.4288 25.6252C46.4288 13.5368 51.9751 1.85209 52.0316 1.73522C52.3373 1.09899 51.9958 0.366505 51.2687 0.0983873C50.5416 -0.169731 49.7044 0.129012 49.398 0.765245C49.1602 1.26023 43.5717 13.018 43.5717 25.6252C43.5717 31.5932 44.8345 35.2162 46.1709 39.0511C47.7023 43.4466 49.2859 47.9915 49.2859 56.8744C49.2859 61.8405 49.473 65.866 49.8459 69.1265L38.2832 63.4473C38.946 60.2443 39.286 57.4037 39.286 55.0001C39.286 47.1065 38.3139 43.4566 37.3739 39.928C36.521 36.7249 35.7146 33.7 35.7146 27.5002C35.7146 14.8724 44.0145 1.99896 44.0981 1.87084C44.4888 1.27148 44.2509 0.507752 43.5659 0.165887C42.8809 -0.176604 42.0088 0.0315148 41.6174 0.630874C41.2595 1.17836 32.8575 14.1968 32.8575 27.5002C32.8575 27.9351 32.8618 28.3533 32.8696 28.7601C31.4568 27.2945 29.7847 26.0158 28.1526 24.9527C28.6076 23.0078 29.2161 18.666 26.8347 14.9017C25.1312 12.2081 22.2612 10.3637 18.3048 9.42001C9.5885 7.34007 2.08217 16.388 1.76717 16.7736C1.54432 17.0467 1.45575 17.3867 1.52289 17.7173C1.61646 18.1792 3.92001 29.0764 13.8456 32.4163C15.352 32.9231 16.7913 33.1769 18.1541 33.1769C19.557 33.1769 20.8798 32.9081 22.1112 32.3707C24.8362 31.1813 26.4112 28.9526 27.2069 27.462C29.8661 29.2901 32.4454 31.6775 33.2839 34.415C33.3689 35.0306 33.4646 35.6062 33.5668 36.1549C33.5668 36.1874 33.5718 36.218 33.5718 36.2499C33.5718 36.408 33.6089 36.5574 33.6704 36.6968C33.8275 37.4793 33.9989 38.2049 34.1761 38.9042C26.7154 40.9217 20.1977 43.8666 14.7584 47.6765L2.54859 34.2225C2.05788 33.6819 1.15932 33.5919 0.541473 34.0206C-0.0763764 34.45 -0.179234 35.2362 0.31076 35.7768L16.0006 53.0632C14.9406 54.0669 14.2863 55.4032 14.2863 56.8744C14.2863 59.9762 17.1698 62.4992 20.7148 62.4992C22.8276 62.4992 24.6997 61.5986 25.8726 60.2174L55.7165 74.877C38.841 74.1389 25.3155 70.0659 15.4549 62.7411C12.6585 60.6593 10.1999 58.335 8.14638 55.8319C4.01857 50.8108 2.84359 46.674 2.82002 46.5878C2.6393 45.9165 1.87074 45.5003 1.10361 45.6578C0.335046 45.8153 -0.141375 46.4884 0.0386232 47.1603C0.0864798 47.339 1.21932 51.4208 5.24784 56.5638C1.22218 61.7049 0.0857655 65.7848 0.0386232 65.9635C-0.141375 66.636 0.335046 67.3085 1.10361 67.466C1.21289 67.4885 1.32289 67.4991 1.43075 67.4991C2.0786 67.4991 2.66573 67.1104 2.82002 66.5347C2.83002 66.4972 3.77215 63.1105 7.05568 58.6943C8.69851 60.5174 10.5478 62.2361 12.5763 63.8336L0.310046 77.3463C-0.180662 77.8869 -0.0778042 78.6732 0.540045 79.1032C0.802899 79.2857 1.11647 79.3744 1.42789 79.3744C1.8486 79.3744 2.26574 79.2125 2.54716 78.9019L14.7542 65.4541C19.8219 69.0053 25.739 71.7777 32.4711 73.7614C31.5397 76.4901 30.8047 78.31 30.7961 78.3307C30.5318 78.9813 30.9204 79.6963 31.6639 79.9275C31.8225 79.9763 31.9839 80 32.1425 80C32.7296 80 33.2804 79.6806 33.4889 79.1682C33.5232 79.0825 34.2539 77.2782 35.1982 74.512C40.2703 75.807 45.7738 76.6813 51.6951 77.1307C52.1094 78.0644 52.5851 78.8488 53.1423 79.4994C53.423 79.8263 53.8522 79.9994 54.2865 79.9994C54.5844 79.9994 54.8858 79.9181 55.1429 79.7494C55.7736 79.335 55.9015 78.5513 55.4287 77.9994C55.2594 77.8019 55.1015 77.5769 54.9487 77.3357C57.0615 77.4388 59.2157 77.5001 61.4286 77.5001C62.0786 77.5001 62.6464 77.1163 62.8107 76.5663C62.975 76.0164 62.6943 75.4382 62.1279 75.1601L52.9165 70.6359C52.3987 67.2053 52.143 62.7036 52.143 56.8744C52.143 51.0695 51.4658 46.9634 50.5866 43.6322L62.1279 37.9649C62.6943 37.6868 62.975 37.1087 62.8107 36.5587C62.6464 36.0087 62.0786 35.6249 61.4286 35.6249C56.8151 35.6249 52.3873 35.8668 48.2173 36.3212C48.0923 35.9431 47.9709 35.5643 47.8537 35.1837C48.1487 34.3075 49.9459 29.3645 53.8215 26.4758ZM57.1736 16.0992C58.4908 14.0261 60.77 12.5899 63.9471 11.8318C69.8178 10.43 75.5427 16.1642 77.0348 17.8023C76.4698 19.8872 73.9149 27.632 66.6299 30.0832C64.3578 30.8476 62.3564 30.8669 60.6793 30.1401C57.5743 28.7945 56.3836 25.3133 56.3722 25.2783C56.3708 25.274 56.3694 25.269 56.3679 25.2652C56.3665 25.2596 56.3422 25.1858 56.3094 25.0733C57.4165 24.6359 58.6436 24.3752 60 24.3752C60.7886 24.3752 61.4286 23.8153 61.4286 23.1253C61.4286 22.4353 60.7886 21.8753 60 21.8753C58.4808 21.8753 57.1015 22.114 55.8479 22.5209C55.6829 20.686 55.8201 18.2304 57.1736 16.0992ZM20.8212 30.1407C19.1441 30.8676 17.1427 30.8482 14.8706 30.0838C7.58424 27.6314 5.02928 19.8847 4.465 17.8023C5.95712 16.1636 11.682 10.4306 17.5534 11.8318C20.7312 12.5899 23.0098 14.0261 24.3269 16.0992C25.909 18.5898 25.8333 21.5316 25.5512 23.3978C23.2848 22.154 21.5084 21.4422 21.3012 21.3603C20.5819 21.0766 19.7362 21.3578 19.412 21.9872C19.0877 22.6165 19.4091 23.3565 20.1284 23.6403C20.1819 23.6609 22.2983 24.5096 24.8347 25.9714C24.3183 27.0633 23.0762 29.1626 20.8212 30.1407ZM34.8168 41.3467C35.301 43.1941 35.771 45.1716 36.0775 47.8946L25.4719 53.1039C24.2948 51.9683 22.6012 51.2495 20.7148 51.2495C19.8834 51.2495 19.0912 51.3926 18.3613 51.6451L16.5348 49.6327C21.6455 46.0528 27.7818 43.271 34.8168 41.3467ZM20.7148 59.9993C18.7455 59.9993 17.1434 58.5975 17.1434 56.8744C17.1434 55.1513 18.7455 53.7495 20.7148 53.7495C22.6841 53.7495 24.2862 55.1513 24.2862 56.8744C24.2862 58.5975 22.6841 59.9993 20.7148 59.9993ZM26.8769 55.2813L36.3082 50.6483C36.3839 51.9401 36.4289 53.3713 36.4289 54.9994C36.4289 57.0425 36.1618 59.4449 35.641 62.1486L27.0276 57.9181C27.1011 57.5794 27.1433 57.2312 27.1433 56.8744C27.1433 56.3206 27.0476 55.7869 26.8769 55.2813ZM49.8509 41.1267C49.5859 40.2973 49.3159 39.508 49.0487 38.7411C51.2008 38.5174 53.4237 38.3511 55.7101 38.2492L49.8509 41.1267Z" fill="url(#paint0_linear_1998_18)"/>
<defs>
<linearGradient id="paint0_linear_1998_18" x1="12.2559" y1="92.5104" x2="85.456" y2="31.8172" gradientUnits="userSpaceOnUse">
<stop offset="0.0909998" stop-color="#055300"/>
<stop offset="1" stop-color="#FECA02"/>
</linearGradient>
</defs>
</svg>
